# xmcd
#
# Track frame offsets: 
#        150
#        14844
#        30468
#        43743
#        56055
#        69912
#        83701
#        95126
#        109021
#        121409
#        134928
#        149709
#        163092
#        174418
#        185585
#        197988
#        210176
#        223375
#        236257
#        248240
#
# Disc length: 3477 seconds
#
# Revision: 1
# Processed by: cddbd v1.5.2PL0 Copyright (c) Steve Scherf et al.
# Submitted via: ExactAudioCopy v0.95b4
#
DISCID=350d9314
DTITLE=Coleman Hawkins - Dear Old Southland, CD 1
DYEAR=2005
DGENRE=Jazz
TTITLE0=It Send Me
TTITLE1=On The Sunny Side Of The Street
TTITLE2=Lullaby
TTITLE3=Lady Be Good
TTITLE4=Lost in A Fog
TTITLE5=Honeysuckle Rose
TTITLE6=Some Of These Days
TTITLE7=Sorrow
TTITLE8=Honeysuckle Rose
TTITLE9=Crazy Rhythm
TTITLE10=Out Of Nowhere
TTITLE11=Lamentation
TTITLE12=Star Dust
TTITLE13=Well, All Right Then
TTITLE14=Blues Evermore
TTITLE15=Dear Old Southland
TTITLE16=Way Down Yonder in New Orleans
TTITLE17=I Know That You Know
TTITLE18=The Darktown Strutter's Ball
TTITLE19=My Melancholy Baby
EXTD=
EXTT0=
EXTT1=
EXTT2=
EXTT3=
EXTT4=
EXTT5=
EXTT6=
EXTT7=
EXTT8=
EXTT9=
EXTT10=
EXTT11=
EXTT12=
EXTT13=
EXTT14=
EXTT15=
EXTT16=
EXTT17=
EXTT18=
EXTT19=
PLAYORDER=
